<svg width="293" height="36" viewBox="0 0 293 36" fill="none" xmlns="http://www.w3.org/2000/svg">
<path d="M38.665 18.709H28.7324L42.5664 35.0264H30.1514L12.0605 14.0977H28.7324V6.64844H10.6416V35.0264H0V0.973633H38.665V18.709ZM81.5859 35.0264H52.8535L44.3398 25.8037V0.973633H81.5859V35.0264ZM122.379 6.64844H97.5488V28.9961H114.93V16.5811H125.217V35.0264H87.2617V0.973633H127.345L122.379 6.64844ZM181.972 35.0264H172.04V20.4834H155.014V35.0264H144.017V0.973633H181.972V35.0264ZM198.289 29.3516H220.637L216.025 35.0264H188.002V0.973633H198.289V29.3516ZM235.181 29.3516H257.173L252.562 35.0264H224.184V0.973633H235.181V29.3516ZM271.717 10.9053L280.23 0.973633H293L277.037 18.709V35.0264H266.751V18.709L250.788 0.973633H262.849L271.717 10.9053ZM54.627 6.64844V22.9658L59.9482 28.9961H71.6533V6.64844H54.627ZM155.014 5.93945V15.1621H172.04V5.93945H155.014Z" fill="#1B1B1B"/>
</svg>
